<?xml version="1.0" encoding="utf-8"?>
<!-- Generator: Adobe Illustrator 24.3.0, SVG Export Plug-In . SVG Version: 6.00 Build 0)  -->
<svg version="1.1" id="Layer_1" xmlns="http://www.w3.org/2000/svg" xmlns:xlink="http://www.w3.org/1999/xlink" x="0px" y="0px"
	 viewBox="0 0 85.04 85.04" style="enable-background:new 0 0 85.04 85.04;" xml:space="preserve">
<style type="text/css">
	.st0{fill:#009D78;}
	.st1{fill:#EE7637;}
	.st2{fill:#4A4A4A;}
</style>
<g>
	<path class="st0" d="M36.85,11.34"/>
	<path class="st0" d="M0,42.52C0,19.04,19.04,0,42.52,0h2.83c1.57,0,2.84,1.27,2.84,2.84V8.5c0,1.57-1.27,2.84-2.84,2.84h-2.83
		c-17.22,0-31.18,13.96-31.18,31.18v2.83c0,1.57-1.27,2.84-2.84,2.84H2.84C1.27,48.19,0,46.92,0,45.35V42.52z"/>
	<path class="st0" d="M85.04,42.52C85.04,66,66,85.04,42.52,85.04h-2.83c-1.57,0-2.84-1.27-2.84-2.84v-5.67
		c0-1.57,1.27-2.84,2.84-2.84h2.83c17.22,0,31.18-13.96,31.18-31.18v-2.83c0-1.57,1.27-2.84,2.84-2.84h5.67
		c1.57,0,2.84,1.27,2.84,2.84V42.52z"/>
	<path class="st1" d="M56.69,5.67c0,12.52,10.15,22.68,22.68,22.68h0c1.57,0,2.83-1.27,2.83-2.83v-5.67c0-1.57-1.27-2.83-2.83-2.83
		h0c-6.26,0-11.34-5.08-11.34-11.34v0c0-1.57-1.27-2.83-2.83-2.83h-5.67C57.96,2.83,56.69,4.1,56.69,5.67L56.69,5.67z"/>
	<path class="st1" d="M28.35,79.37c0-12.52-10.15-22.68-22.68-22.68h0c-1.57,0-2.83,1.27-2.83,2.83v5.67c0,1.57,1.27,2.83,2.83,2.83
		h0c6.26,0,11.34,5.08,11.34,11.34v0c0,1.57,1.27,2.83,2.83,2.83h5.67C27.08,82.2,28.35,80.94,28.35,79.37L28.35,79.37z"/>
	<circle class="st2" cx="42.52" cy="42.52" r="14.17"/>
</g>
</svg>
