<?xml version="1.0" encoding="utf-8"?>
<!-- Generator: Adobe Illustrator 24.3.0, SVG Export Plug-In . SVG Version: 6.00 Build 0)  -->
<svg version="1.1" id="Layer_1" xmlns="http://www.w3.org/2000/svg" xmlns:xlink="http://www.w3.org/1999/xlink" x="0px" y="0px"
	 viewBox="0 0 213.38 85.04" style="enable-background:new 0 0 213.38 85.04;" xml:space="preserve">
<style type="text/css">
	.st0{fill:#009D78;}
	.st1{fill:#EE7637;}
	.st2{fill:#4A4A4A;}
</style>
<g>
	<g>
		<path class="st0" d="M36.85,11.34"/>
		<path class="st0" d="M0,42.52C0,19.04,19.04,0,42.52,0l2.83,0c1.57,0,2.84,1.27,2.84,2.84V8.5c0,1.57-1.27,2.84-2.84,2.84h-2.83
			c-17.22,0-31.18,13.96-31.18,31.18v2.83c0,1.57-1.27,2.84-2.84,2.84H2.84C1.27,48.19,0,46.92,0,45.35V42.52z"/>
		<path class="st0" d="M85.04,42.52C85.04,66,66,85.04,42.52,85.04h-2.83c-1.57,0-2.84-1.27-2.84-2.84v-5.67
			c0-1.57,1.27-2.84,2.84-2.84h2.83c17.22,0,31.18-13.96,31.18-31.18v-2.83c0-1.57,1.27-2.84,2.84-2.84h5.67
			c1.57,0,2.84,1.27,2.84,2.84V42.52z"/>
		<path class="st1" d="M56.69,5.67c0,12.52,10.15,22.68,22.68,22.68h0c1.57,0,2.83-1.27,2.83-2.83v-5.67c0-1.57-1.27-2.83-2.83-2.83
			h0c-6.26,0-11.34-5.08-11.34-11.34v0c0-1.57-1.27-2.83-2.83-2.83h-5.67C57.96,2.83,56.69,4.1,56.69,5.67L56.69,5.67z"/>
		<path class="st1" d="M28.35,79.37c0-12.52-10.15-22.68-22.68-22.68h0c-1.57,0-2.83,1.27-2.83,2.83v5.67
			c0,1.57,1.27,2.83,2.83,2.83h0c6.26,0,11.34,5.08,11.34,11.34v0c0,1.57,1.27,2.83,2.83,2.83h5.67
			C27.08,82.2,28.35,80.94,28.35,79.37L28.35,79.37z"/>
		<circle class="st2" cx="42.52" cy="42.52" r="14.17"/>
	</g>
	<g>
		<path class="st2" d="M137.41,32.83c-1.67,0-3.24,0.37-4.71,1.11c-1.26,0.64-2.54,1.57-3.84,2.75c-0.27-0.89-0.69-1.65-1.27-2.23
			c-1.09-1.09-2.67-1.63-4.76-1.63c-1.7,0-3.28,0.37-4.73,1.11c-1.36,0.69-2.75,1.72-4.19,3.06l-0.54-3.56h-5.58v23.38h7V40.69
			c0.64-0.4,1.24-0.75,1.73-1c0.68-0.35,1.28-0.59,1.8-0.73c0.52-0.14,1.05-0.21,1.59-0.21c0.88,0,1.54,0.21,1.96,0.62
			c0.43,0.41,0.64,1.12,0.64,2.13v15.34h6.72V40.78c0.67-0.41,1.29-0.78,1.8-1.04c0.66-0.35,1.25-0.6,1.75-0.76
			c0.5-0.16,1.04-0.24,1.61-0.24c0.95,0,1.61,0.21,1.99,0.64c0.38,0.43,0.57,1.13,0.57,2.11v15.34h6.96V39.31
			c0-2.11-0.55-3.72-1.66-4.83C141.13,33.38,139.52,32.83,137.41,32.83z"/>
		<rect x="149.67" y="33.44" class="st2" width="6.96" height="23.38"/>
		<path class="st2" d="M154.69,23.12h-3.03c-1.39,0-2.08,0.71-2.08,2.13v2.51c0,1.42,0.69,2.13,2.08,2.13h3.03
			c1.39,0,2.08-0.71,2.08-2.13v-2.51C156.77,23.83,156.07,23.12,154.69,23.12z"/>
		<path class="st2" d="M180.72,34.03c-1.77-0.8-4.12-1.21-7.05-1.21c-2.9,0-5.25,0.4-7.03,1.21c-1.78,0.8-3.07,2.11-3.86,3.9
			c-0.79,1.8-1.18,4.21-1.18,7.24c0,2.97,0.39,5.35,1.18,7.15c0.79,1.8,2.08,3.09,3.86,3.88c1.78,0.79,4.12,1.18,7.03,1.18
			c2.93,0,5.28-0.4,7.05-1.18c1.77-0.79,3.04-2.08,3.81-3.88c0.77-1.8,1.16-4.18,1.16-7.15c0-3.03-0.39-5.44-1.16-7.24
			C183.76,36.14,182.49,34.84,180.72,34.03z M177.97,49.58c-0.28,1.04-0.77,1.76-1.47,2.15c-0.69,0.39-1.64,0.59-2.84,0.59
			c-1.2,0-2.15-0.2-2.84-0.59c-0.69-0.39-1.18-1.11-1.47-2.15c-0.28-1.04-0.43-2.51-0.43-4.4c0-1.92,0.14-3.41,0.43-4.45
			c0.28-1.04,0.77-1.77,1.47-2.18c0.69-0.41,1.64-0.62,2.84-0.62c1.2,0,2.15,0.21,2.84,0.62c0.69,0.41,1.18,1.14,1.47,2.18
			c0.28,1.04,0.43,2.52,0.43,4.45C178.4,47.08,178.26,48.54,177.97,49.58z"/>
		<path class="st2" d="M206.75,32.83c-1.7,0-3.43,0.38-5.18,1.14c-1.65,0.71-3.27,1.73-4.85,3.04l-0.62-3.56h-5.63v23.38h7.01V40.8
			c1.26-0.64,2.36-1.13,3.27-1.46c1.07-0.39,2.11-0.59,3.12-0.59c0.91,0,1.56,0.2,1.94,0.59c0.38,0.4,0.57,1.11,0.57,2.15v15.34
			h7.01V39.31C213.38,34.99,211.17,32.83,206.75,32.83z"/>
	</g>
</g>
</svg>
